<svg id="环" xmlns="http://www.w3.org/2000/svg" width="500" height="500" viewBox="0 0 500 500">
  <defs>
    <style>
      .cls-1, .cls-2 {
        fill: none;
        stroke-width: 8px;
      }

      .cls-1 {
        stroke: #3959a2;
      }

      .cls-1, .cls-2, .cls-3, .cls-4, .cls-5 {
        fill-rule: evenodd;
      }

      .cls-2 {
        stroke: #7c9eeb;
      }

      .cls-3 {
        fill: #3959a2;
      }

      .cls-4 {
        fill: #7c9eeb;
      }

      .cls-5 {
        fill: #2f2f41;
      }
    </style>
  </defs>
  <path id="形状_1" data-name="形状 1" class="cls-1" d="M139,39c17.055-4.694,32.666-5.049,47-1,11.12,3.141,27.96,17.474,43,15,19.985-3.287,23-26.595,43-30,15.293-2.6,31.938,11.785,44,15,13.852,3.692,28.8,3.334,45-1"/>
  <path id="形状_2" data-name="形状 2" class="cls-2" d="M47,256c13.667,11.242,22.746,24.207,25,39,2.64,17.325-10.042,45.553-11,50-5.1,23.7-1.025,44.821,2,51,8.155,16.66,23.7,27.5,39,32a65.49,65.49,0,0,0,47-4"/>
  <path id="形状_3" data-name="形状 3" class="cls-1" d="M451,258c-5.926,15.731-14.164,28.12-25,37-5.856,4.8-12.611,8.78-17,18-5,10.515-2.406,19.3-5,28-3.326,11.157-11.7,20.77-25,29"/>
  <path id="形状_4" data-name="形状 4" class="cls-2" d="M340,423c18.422,8.258,39.959,8.85,58-1,9.724-5.309,19.6-14.137,25-26,4.919-10.81,4.549-23.7,6-30,2.57-11.158,7.891-21.776,16-32"/>
  <path id="形状_1-2" data-name="形状 1" class="cls-3" d="M385.031,16h-77V60h100Zm44,86h-103l22,44h104Zm45,86h-104l23,44h104Z"/>
  <path id="形状_2-2" data-name="形状 2" class="cls-4" d="M408.031,60l-23-44-61,85,24,44Zm21,42-60,85,23,45,61-86Zm8,215-24-45,61-84,23,44Z"/>
  <path id="形状_1-3" data-name="形状 1" class="cls-3" d="M115,16h77V60H92ZM71,102H174l-22,44H48ZM26,188H130l-23,44H3Z"/>
  <path id="形状_2-3" data-name="形状 2" class="cls-4" d="M92,60l23-44,61,85-24,44ZM71,102l60,85-23,45L47,146ZM63,317l24-45L26,188,3,232Z"/>
  <path id="形状_3-2" data-name="形状 3" class="cls-4" d="M99,402H335V392l64,33-64,32V447H99V402Z"/>
  <path id="P" class="cls-5" d="M173.2,156.347q8.674,0.282,13.3,2.1a10.106,10.106,0,0,1,6.16,6.72q1.535,4.9,1.54,15.26v138.88q0,10.08-1.54,15.12a9.741,9.741,0,0,1-6.02,6.72q-4.482,1.68-13.44,2.24v5.6q9.24-.276,20.72-0.56t23.52-.28q15.12,0,28.84.28t22.4,0.56v-6.16q-12.6-.276-19.04-1.96t-8.68-7q-2.245-5.316-2.24-16.24v-137.2q0-14.556,3.22-19.32t14.14-4.76q19.038,0,26.88,13.16t7.84,39.76a105.086,105.086,0,0,1-3.22,26.6,38.945,38.945,0,0,1-11.76,19.88q-8.546,7.56-25.06,7.56L239,263v6l14.558-.093q24.635,0,40.88-5.88t25.62-15.26a54.8,54.8,0,0,0,13.3-20.44,63.275,63.275,0,0,0,3.92-21.14q0-24.36-19.32-39.76t-58.24-15.4q-5.322,0-17.92.28t-26.04.28q-11.76,0-23.66-.28t-18.9-.56v5.6Z"/>
</svg>
