<svg xmlns="http://www.w3.org/2000/svg" width="2260" height="420" viewBox="0 0 2260 420">
  <defs>
    <style>
      .cls-1 {
        fill: #205be6;
      }

      .cls-1, .cls-2 {
        fill-rule: evenodd;
      }

      .cls-2 {
        fill: #2f2f41;
      }
    </style>
  </defs>
  <path id="Protein" class="cls-1" d="M1028.71,76.08q10.53,0.343,16.15,2.55a12.277,12.277,0,0,1,7.48,8.16q1.86,5.953,1.87,18.53V273.96q0,12.24-1.87,18.36a11.837,11.837,0,0,1-7.31,8.16q-5.445,2.04-16.32,2.72V310q11.22-.335,25.16-0.68t28.56-.34q18.36,0,35.02.34t27.2,0.68v-7.48q-15.3-.334-23.12-2.38t-10.54-8.5q-2.73-6.454-2.72-19.72V105.32q0-17.675,3.91-23.46t17.17-5.78q23.115,0,32.64,15.98t9.52,48.28a127.707,127.707,0,0,1-3.91,32.3q-3.915,14.966-14.28,24.14t-30.43,9.18L1108,206v7l18.29-.24q29.91,0,49.64-7.14,19.71-7.14,31.11-18.53a66.585,66.585,0,0,0,16.15-24.82,76.878,76.878,0,0,0,4.76-25.67q0-29.58-23.46-48.28t-70.72-18.7q-6.465,0-21.76.34t-31.62.34q-14.28,0-28.73-.34t-22.95-.68v6.8Zm311.78,57.63a50.655,50.655,0,0,0-15.64,11.73,61.992,61.992,0,0,0-10.88,16.66V130.48a183.973,183.973,0,0,1-22.95,3.57q-12.42,1.2-26.69,1.19-10.2,0-21.08-1.02v7.14q12.57,0,17.17,7.31t4.59,22.61v107.1q0,14.28-4.93,19.38t-16.83,5.1V310q7.14-.335,21.08-0.85t27.54-.51q16.32,0,31.28.51t22.78,0.85v-7.14q-15.99,0-23.97-5.78t-7.99-22.1v-90.1a45.424,45.424,0,0,1,2.38-14.11,57.519,57.519,0,0,1,6.46-13.6,39.819,39.819,0,0,1,9.86-10.54,27.814,27.814,0,0,1,12.24-5.27,15.252,15.252,0,0,1,9.52-.34,40.059,40.059,0,0,0-10.71,10.71q-4.26,6.3-4.25,15.81,0,9.865,6.63,15.81t18.53,5.95q11.895,0,19.21-7.99t7.31-20.57a35.951,35.951,0,0,0-3.23-14.96,27.862,27.862,0,0,0-10.03-11.73q-6.81-4.59-17.68-4.59A44.912,44.912,0,0,0,1340.49,133.71Zm106.24,4.93q-18.87,9.18-29.58,29.58t-10.71,54.06q0,33.66,10.71,53.89t29.58,29.41q18.87,9.18,43.01,9.18,24.825,0,43.52-9.18t29.24-29.41q10.545-20.225,10.54-53.89t-10.54-54.06q-10.53-20.4-29.24-29.58-18.69-9.18-43.52-9.18Q1465.605,129.46,1446.73,138.64Zm65.96,17.85q9.015,20.232,9.01,65.79t-9.01,65.62q-9,20.066-22.95,20.06-13.59,0-22.78-20.06t-9.18-65.62q0-45.558,9.18-65.79t22.78-20.23Q1503.69,136.26,1512.69,156.49Zm127.84-69.7a127.57,127.57,0,0,1-26.35,2.55v44.88h-28.56v6.8h28.56V255.94q0,17.682,2.38,28.73a35.6,35.6,0,0,0,24.14,27.2,61.323,61.323,0,0,0,19.72,2.89q19.035,0,30.09-9.86A59.973,59.973,0,0,0,1707,279.74l-5.78-3.06q-4.77,11.22-10.88,15.81t-12.24,4.59q-7.485,0-11.22-4.25-3.75-4.248-3.74-14.45V141.02h40.12v-6.8h-40.12V78.46A82,82,0,0,1,1640.53,86.79Zm117.98,53.04q-18.87,10.376-29.58,31.45t-10.71,52.7q0,30.942,10.03,51t27.71,29.92q17.67,9.858,40.8,9.86,19.035,0,32.64-7.82a70.967,70.967,0,0,0,22.44-20.06,88.543,88.543,0,0,0,12.92-25.16l-6.12-2.04q-6.81,10.886-14.62,16.83a47.655,47.655,0,0,1-15.47,8.16,53.071,53.071,0,0,1-14.79,2.21q-10.545,0-20.74-6.63T1776.19,259q-6.63-14.614-6.63-38.08c0-3.172.05-6.232,0.17-9.18s0.28-5.78.51-8.5l-1.02-2.04q1.695-34.68,10.03-49.64t20.23-14.96q8.49,0,13.6,8.5t7.48,22.61a166.234,166.234,0,0,1,2.04,30.77h-53.7l0.68,6.46h95.86q0-40.114-17-57.8t-46.92-17.68Q1777.37,129.46,1758.51,139.83Zm148.24-86.36q-8.34,6.973-8.33,19.21t8.33,19.21q8.325,6.973,22.61,6.97t22.61-6.97q8.325-6.965,8.33-19.21t-8.33-19.21q-8.34-6.965-22.61-6.97T1906.75,53.47Zm26.18,80.58q-12.42,1.2-26.69,1.19-10.2,0-21.08-1.02v7.14q12.57,0,17.17,7.31t4.59,22.61v107.1q0,14.28-4.93,19.38t-16.83,5.1V310q6.795-.335,20.4-0.85,13.59-.51,26.86-0.51t26.01,0.51q12.75,0.51,19.21.85v-7.14q-11.91,0-16.83-5.1t-4.93-19.38V130.48A183.973,183.973,0,0,1,1932.93,134.05Zm153.16,2.55q-14.625,7.14-23.12,24.48v-30.6a183.973,183.973,0,0,1-22.95,3.57q-12.42,1.2-26.69,1.19-10.2,0-21.08-1.02v7.14q12.57,0,17.17,7.31t4.59,22.61v107.1q0,14.28-4.93,19.38t-16.83,5.1V310q6.8-.335,20.4-0.85,13.59-.51,26.52-0.51,12.57,0,24.31.51t17.85,0.85v-7.14q-9.87,0-14.11-5.1-4.26-5.1-4.25-19.38V183.86a43.926,43.926,0,0,1,4.59-20.23,36.409,36.409,0,0,1,12.24-14.11,29.706,29.706,0,0,1,16.83-5.1q8.835,0,13.26,3.57a18.506,18.506,0,0,1,6.12,9.86,57.257,57.257,0,0,1,1.7,14.79V278.38q0,14.28-4.08,19.38t-14.28,5.1V310q6.45-.335,18.87-0.85t25.33-.51q12.57,0,25.5.51,12.915,0.51,19.38.85v-7.14q-11.91,0-16.83-5.1-4.935-5.1-4.93-19.38V186.92q0-17.34-2.55-27.54a40.911,40.911,0,0,0-7.99-16.66,34.441,34.441,0,0,0-14.11-9.69q-9.015-3.57-23.29-3.57A73.346,73.346,0,0,0,2086.09,136.6Z"/>
  <path id="Torch" class="cls-2" d="M247.948,69.96q-18.7.343-37.23,0.34h-67.49q-18.7,0-37.23-.34t-34.17-.68q1.355,17.34,1.87,33.32t0.51,24.48q0,7.482-.17,14.28a102.553,102.553,0,0,1-.85,11.56h7.82q6.12-28.894,14.28-45.39t19.719-23.46q11.556-6.965,27.2-6.97h7.479V271.24q0,13.6-2.719,20.4t-10.54,9.01q-7.825,2.216-23.12,2.55V310q10.2-.335,26.86-0.68t35.36-.34q19.037,0,36.55.34t28.05,0.68v-6.8q-14.965-.334-22.78-2.55t-10.71-9.01q-2.893-6.8-2.891-20.4V77.1h7.821q15.635,0,27.2,6.97t19.89,23.63q8.327,16.662,13.769,45.22h7.821q-0.344-4.758-.68-11.56t-0.34-14.28q0-8.495.51-24.48t1.87-33.32Q266.642,69.623,247.948,69.96Zm95.369,68.68q-18.87,9.18-29.58,29.58t-10.71,54.06q0,33.66,10.71,53.89t29.58,29.41q18.87,9.18,43.01,9.18,24.815,0,43.52-9.18t29.24-29.41q10.536-20.225,10.54-53.89t-10.54-54.06q-10.542-20.4-29.24-29.58t-43.52-9.18Q362.182,129.46,343.317,138.64Zm65.96,17.85q9.006,20.232,9.01,65.79t-9.01,65.62q-9.012,20.066-22.95,20.06-13.6,0-22.78-20.06t-9.18-65.62q0-45.558,9.18-65.79t22.78-20.23Q400.265,136.26,409.277,156.49Zm178.666-22.78a50.7,50.7,0,0,0-15.64,11.73,62.064,62.064,0,0,0-10.88,16.66V130.48a183.885,183.885,0,0,1-22.95,3.57q-12.415,1.2-26.69,1.19-10.2,0-21.08-1.02v7.14q12.575,0,17.17,7.31t4.59,22.61v107.1q0,14.28-4.93,19.38t-16.83,5.1V310q7.14-.335,21.08-0.85t27.54-.51q16.32,0,31.28.51t22.78,0.85v-7.14q-15.986,0-23.97-5.78t-7.99-22.1v-90.1a45.483,45.483,0,0,1,2.38-14.11,57.636,57.636,0,0,1,6.46-13.6,39.867,39.867,0,0,1,9.86-10.54,27.834,27.834,0,0,1,12.24-5.27,15.253,15.253,0,0,1,9.52-.34,40.117,40.117,0,0,0-10.71,10.71q-4.255,6.3-4.25,15.81,0,9.865,6.63,15.81t18.53,5.95q11.9,0,19.21-7.99t7.31-20.57a35.935,35.935,0,0,0-3.23-14.96,27.827,27.827,0,0,0-10.03-11.73q-6.805-4.59-17.68-4.59A44.927,44.927,0,0,0,587.943,133.71ZM694.7,140q-19.045,10.542-30.09,31.45t-11.05,51.51q0,31.962,10.71,52.19t28.56,29.92q17.85,9.69,39.95,9.69,19.715,0,33.32-7.99a67.53,67.53,0,0,0,22.1-20.57,92,92,0,0,0,12.24-25.16l-5.78-2.04q-6.805,11.22-14.79,17.34a45.245,45.245,0,0,1-15.64,8.16,55.08,55.08,0,0,1-14.11,2.04,41.891,41.891,0,0,1-21.59-6.12q-10.375-6.12-17-21.08T704.9,218.2a164.918,164.918,0,0,1,2.89-31.96,100.483,100.483,0,0,1,8.33-25.5q5.435-10.878,13.43-17a29.614,29.614,0,0,1,18.53-6.12,30.307,30.307,0,0,1,12.24,2.38,21.066,21.066,0,0,1,8.16,5.78,32.784,32.784,0,0,0-15.64,9.69q-6.806,7.316-6.8,18.19,0,11.562,7.14,18.36t19.04,6.8q11.9,0,19.38-7.65t7.48-19.55a34.609,34.609,0,0,0-4.93-18.53,41.221,41.221,0,0,0-13.77-13.43,66.942,66.942,0,0,0-18.19-7.31,96.148,96.148,0,0,0-24.31-2.89Q713.736,129.46,694.7,140ZM864.017,47.69q-12.583,1.2-26.52,1.19-10.2,0-21.08-1.02V55q12.574,0,17.17,7.31t4.59,22.61V278.38q0,14.28-4.93,19.38t-16.83,5.1V310q6.8-.335,20.23-0.85t26.69-.51q12.24,0,24.14.51T905.5,310v-7.14q-10.2,0-14.28-5.1t-4.08-19.38V183.52a43.666,43.666,0,0,1,4.59-20.4,35.354,35.354,0,0,1,12.24-13.77,30.469,30.469,0,0,1,16.83-4.93q8.495,0,13.09,3.57a18.035,18.035,0,0,1,6.29,9.86,57.214,57.214,0,0,1,1.7,14.79V278.38q0,14.28-4.08,19.38t-14.28,5.1V310q6.12-.335,18.53-0.85t25.67-.51q12.24,0,25.33.51T1012.6,310v-7.14q-11.91,0-16.833-5.1t-4.93-19.38V186.92q0-17.34-2.55-27.54a38.525,38.525,0,0,0-8.33-16.66,34.55,34.55,0,0,0-13.94-9.69q-8.846-3.57-23.46-3.57a73.815,73.815,0,0,0-32.47,6.97q-14.455,6.972-22.95,24.65V44.12A183.418,183.418,0,0,1,864.017,47.69Z"/>
</svg>
