<svg id="环" xmlns="http://www.w3.org/2000/svg" width="64" height="64" viewBox="0 0 64 64">
  <defs>
    <style>
      .cls-1, .cls-2 {
        fill: none;
        stroke-width: 1.024px;
      }

      .cls-1 {
        stroke: #3959a2;
      }

      .cls-1, .cls-2, .cls-3, .cls-4, .cls-5 {
        fill-rule: evenodd;
      }

      .cls-2 {
        stroke: #7c9eeb;
      }

      .cls-3 {
        fill: #3959a2;
      }

      .cls-4 {
        fill: #7c9eeb;
      }

      .cls-5 {
        fill: #2f2f41;
      }
    </style>
  </defs>
  <path id="形状_1" data-name="形状 1" class="cls-1" d="M17.792,4.992a11.045,11.045,0,0,1,6.016-.128c1.423,0.4,3.579,2.237,5.5,1.92,2.558-.421,2.944-3.4,5.5-3.84,1.957-.333,4.088,1.509,5.632,1.92a11.016,11.016,0,0,0,5.76-.128"/>
  <path id="形状_2" data-name="形状 2" class="cls-2" d="M6.016,32.768a8.2,8.2,0,0,1,3.2,4.992c0.338,2.218-1.285,5.831-1.408,6.4a12.052,12.052,0,0,0,.256,6.528,8.124,8.124,0,0,0,4.992,4.1,8.382,8.382,0,0,0,6.016-.512"/>
  <path id="形状_3" data-name="形状 3" class="cls-1" d="M57.728,33.024a10.929,10.929,0,0,1-3.2,4.736,6.446,6.446,0,0,0-2.176,2.3c-0.641,1.346-.308,2.47-0.64,3.584a6.791,6.791,0,0,1-3.2,3.712"/>
  <path id="形状_4" data-name="形状 4" class="cls-2" d="M43.52,54.144a8.361,8.361,0,0,0,7.424-.128,7.42,7.42,0,0,0,3.2-3.328,15.687,15.687,0,0,0,.768-3.84,10.283,10.283,0,0,1,2.048-4.1"/>
  <path id="形状_1-2" data-name="形状 1" class="cls-3" d="M49.284,2.048H39.428V7.68h12.8Zm5.632,11.008H41.732l2.816,5.632H57.86Zm5.76,11.008H47.364L50.308,29.7H63.62Z"/>
  <path id="形状_2-2" data-name="形状 2" class="cls-4" d="M52.228,7.68L49.284,2.048l-7.808,10.88,3.072,5.632Zm2.688,5.376-7.68,10.88L50.18,29.7l7.808-11.008Zm1.024,27.52-3.072-5.76,7.808-10.752L63.62,29.7Z"/>
  <path id="形状_1-3" data-name="形状 1" class="cls-3" d="M14.72,2.048h9.856V7.68h-12.8ZM9.088,13.056H22.272l-2.816,5.632H6.144ZM3.328,24.064H16.64L13.7,29.7H0.384Z"/>
  <path id="形状_2-3" data-name="形状 2" class="cls-4" d="M11.776,7.68L14.72,2.048l7.808,10.88L19.456,18.56ZM9.088,13.056l7.68,10.88L13.824,29.7,6.016,18.688ZM8.064,40.576l3.072-5.76L3.328,24.064,0.384,29.7Z"/>
  <path id="形状_3-2" data-name="形状 3" class="cls-4" d="M12.672,51.456H42.88v-1.28L51.072,54.4,42.88,58.5v-1.28H12.672v-5.76Z"/>
  <path id="P" class="cls-5" d="M22.169,20.012a5.33,5.33,0,0,1,1.7.269,1.294,1.294,0,0,1,.788.86,7.077,7.077,0,0,1,.2,1.953V40.871a7.1,7.1,0,0,1-.2,1.935,1.247,1.247,0,0,1-.771.86,6.322,6.322,0,0,1-1.72.287V44.67q1.183-.035,2.652-0.072t3.011-.036q1.935,0,3.691.036t2.867,0.072V43.882a11.322,11.322,0,0,1-2.437-.251,1.538,1.538,0,0,1-1.111-.9,5.658,5.658,0,0,1-.287-2.079V23.095a4.936,4.936,0,0,1,.412-2.473,2.088,2.088,0,0,1,1.81-.609A3.677,3.677,0,0,1,36.219,21.7a10.179,10.179,0,0,1,1,5.089,13.447,13.447,0,0,1-.412,3.4A4.985,4.985,0,0,1,35.3,32.736,4.7,4.7,0,0,1,32.1,33.7l-1.505-.039v0.768l1.863-.012a15.55,15.55,0,0,0,5.233-.753,8.8,8.8,0,0,0,3.279-1.953,7.014,7.014,0,0,0,1.7-2.616,8.1,8.1,0,0,0,.5-2.706A6.214,6.214,0,0,0,40.7,21.3q-2.473-1.971-7.455-1.971-0.681,0-2.294.036t-3.333.036q-1.505,0-3.029-.036T22.169,19.3v0.717Z"/>
</svg>
