<svg id="组_1" data-name="组 1" xmlns="http://www.w3.org/2000/svg" width="2400" height="1440" viewBox="0 0 2400 1440">
  <defs>
    <style>
      .cls-1 {
        fill: #5879c7;
      }

      .cls-1, .cls-2, .cls-3 {
        fill-rule: evenodd;
      }

      .cls-2 {
        fill: #3959a2;
      }

      .cls-3 {
        fill: none;
        stroke: #7c9eeb;
        stroke-width: 133.333px;
      }
    </style>
  </defs>
  <path id="形状_1" data-name="形状 1" class="cls-1" d="M1572.33-32.667L729.667,1466.67H2429L2428.33-32.667h-856Z"/>
  <path id="形状_2" data-name="形状 2" class="cls-2" d="M2047-62c-109.38,195.179-213.33,391.143-305.33,577.333-35.73,72.3-77.75,192.071-24,276,27.32,42.668,48.32,52.624,76,94.667,56.77,86.241,3.18,207.66-36,288-89.33,183.16-215.62,409.72-313.34,594.67l967.34-.67L2410.33-61.333Z"/>
  <path id="形状_2-2" data-name="形状 2" class="cls-3" d="M2047-62c-109.38,195.179-213.33,391.143-305.33,577.333-35.73,72.3-77.75,192.071-24,276,27.32,42.668,48.32,52.624,76,94.667,56.77,86.241,3.18,207.66-36,288-89.33,183.16-215.62,409.72-313.34,594.67"/>
  <path id="直线_1" data-name="直线 1" class="cls-3" d="M1729,541.333l52.62-102.611-26.69-13.689,54.07-39.7-0.68,67.079-26.7-13.69Z"/>
</svg>
