<?xml version="1.0" encoding="UTF-8" standalone="no"?>
<svg
   xmlns:dc="http://purl.org/dc/elements/1.1/"
   xmlns:cc="http://creativecommons.org/ns#"
   xmlns:rdf="http://www.w3.org/1999/02/22-rdf-syntax-ns#"
   xmlns:svg="http://www.w3.org/2000/svg"
   xmlns="http://www.w3.org/2000/svg"
   xmlns:sodipodi="http://sodipodi.sourceforge.net/DTD/sodipodi-0.dtd"
   xmlns:inkscape="http://www.inkscape.org/namespaces/inkscape"
   inkscape:version="1.0beta2 (2b71d25, 2019-12-03)"
   sodipodi:docname="logo.svg"
   id="svg841"
   height="20.280087"
   width="106.8062"
   xml:space="preserve"
   viewBox="0 0 946.40001 82.825717"
   version="1.1"
   enable-background="new 0 0 974.7 179.7"><metadata
     id="metadata847"><rdf:RDF><cc:Work
         rdf:about=""><dc:format>image/svg+xml</dc:format><dc:type
           rdf:resource="http://purl.org/dc/dcmitype/StillImage" /><dc:title> Artificial Intelligence Computing Leadership from NVIDIA</dc:title></cc:Work></rdf:RDF></metadata><defs
     id="defs845" /><sodipodi:namedview
     inkscape:current-layer="svg841"
     inkscape:window-maximized="1"
     inkscape:window-y="23"
     inkscape:window-x="0"
     inkscape:cy="13.279807"
     inkscape:cx="55.812008"
     inkscape:zoom="9.2363636"
     fit-margin-bottom="0"
     fit-margin-right="0"
     fit-margin-left="0"
     fit-margin-top="0"
     showgrid="false"
     id="namedview843"
     inkscape:window-height="1035"
     inkscape:window-width="1920"
     inkscape:pageshadow="2"
     inkscape:pageopacity="0"
     guidetolerance="10"
     gridtolerance="10"
     objecttolerance="10"
     borderopacity="1"
     inkscape:document-rotation="0"
     bordercolor="#666666"
     pagecolor="#ffffff" /><title
     id="title833"> Artificial Intelligence Computing Leadership from NVIDIA</title><path
     inkscape:connector-curvature="0"
     id="path837"
     d="M 578.2,-14.087147 V 103.91285 h 33.3 V -14.087147 Z m -262,-0.2 V 103.81285 h 33.6 V 12.112854 l 26.2,0.1 c 8.6,0 14.6,2.099999 18.7,6.499999 5.3,5.6 7.4,14.7 7.4,31.2 v 53.899997 h 32.6 V 38.612853 c 0,-46.5999988 -29.7,-52.9 -58.7,-52.9 z m 315.7,0.2 V 103.91285 h 54 c 28.8,0 38.2,-4.8 48.3,-15.499998 7.2,-7.499999 11.8,-24.099999 11.8,-42.199999 0,-16.6 -3.9,-31.4 -10.8,-40.5999985 C 723,-10.887147 705.2,-14.087147 678.6,-14.087147 Z m 33,25.600001 h 14.3 c 20.8,0 34.2,9.299999 34.2,33.499999 0,24.2 -13.4,33.6 -34.2,33.6 h -14.3 z m -134.7,-25.600001 -27.8,93.5 -26.6,-93.5 h -36 l 38,117.999997 h 48 L 564.2,-14.087147 Z M 761.6,103.91285 h 33.3 V -14.087147 H 761.6 Z M 855,-14.087147 808.5,103.81285 h 32.8 l 7.4,-20.899997 h 55 l 7,20.799997 h 35.7 L 899.5,-14.087147 Z m 21.6,21.5000015 20.2,55.1999985 h -41 z" /><path
     inkscape:connector-curvature="0"
     id="path839"
     d="M 101.3,5.5128545 V -10.687147 c 1.6,-0.1 3.2,-0.2 4.8,-0.2 44.4,-1.4 73.5,38.2 73.5,38.2 0,0 -31.4,43.6 -65.1,43.6 -4.5,0 -8.9,-0.7 -13.1,-2.1 v -49.2 c 17.3,2.1 20.8,9.7 31.1,27 l 23.1,-19.4 c 0,0 -16.9,-22.0999985 -45.3,-22.0999985 -3,-0.1 -6,0.1 -9,0.4 m 0,-53.6000005 v 24.2 l 4.8,-0.3 c 61.7,-2.1 102,50.599999 102,50.599999 0,0 -46.2,56.2 -94.3,56.2 -4.2,0 -8.3,-0.4 -12.4,-1.1 v 14.999999 c 3.4,0.4 6.9,0.7 10.3,0.7 44.8,0 77.2,-22.899999 108.6,-49.899999 5.2,4.2 26.5,14.3 30.9,18.7 -29.8,24.999999 -99.3,45.099997 -138.7,45.099997 -3.8,0 -7.4,-0.2 -11,-0.6 v 21.10001 H 271.7 V -48.087146 Z m 0,116.899999 v 12.8 c -41.4,-7.4 -52.9,-50.5 -52.9,-50.5 0,0 19.9,-21.9999984 52.9,-25.5999985 V 19.512853 h -0.1 c -17.3,-2.1 -30.9,14.1 -30.9,14.1 0,0 7.7,27.3 31,35.2 m -73.5,-39.5 c 0,0 24.5,-36.1999984 73.6,-40 V -23.887146 C 47,-19.487147 0,26.512853 0,26.512853 c 0,0 26.6,76.999997 101.3,83.999997 V 96.512852 c -54.8,-6.8 -73.5,-67.199999 -73.5,-67.199999 z"
     fill="#76B900" /></svg>
